<svg width="32" height="33" viewBox="0 0 32 33" fill="none" xmlns="http://www.w3.org/2000/svg">
<rect x="0.612808" y="0.5" width="30.1207" height="31.6921" rx="14.5" stroke="#F2F2F7"/>
<g clip-path="url(#clip0_26_5163)">
<path d="M20.8599 17.7082V28.6056M10.4864 17.7082V28.6056M15.6731 20.4325V31.3299M26.0467 22.5848C27.4098 21.9576 28.5261 20.8569 29.2081 19.4675C29.8902 18.0781 30.0964 16.4844 29.7923 14.9541C29.4882 13.4239 28.6922 12.05 27.5379 11.0633C26.3837 10.0766 24.9414 9.53702 23.4533 9.53518H21.8195C21.4084 7.86315 20.625 6.31767 19.5338 5.02613C18.4426 3.73459 17.0748 2.73397 15.5432 2.10675C14.0115 1.47953 12.36 1.24367 10.7245 1.41861C9.08911 1.59355 7.51668 2.17428 6.13685 3.11293C4.75701 4.05159 3.60929 5.32128 2.78828 6.81737C1.96726 8.31346 1.49647 9.99311 1.4147 11.7179C1.33293 13.4426 1.64252 15.1631 2.31797 16.7375C2.99341 18.3118 4.01536 19.6951 5.29958 20.7731" stroke="#B3B3B3" stroke-width="2" stroke-linecap="round" stroke-linejoin="round"/>
</g>
<defs>
<clipPath id="clip0_26_5163">
<rect width="31.1207" height="32.6921" fill="white" transform="translate(0.112808)"/>
</clipPath>
</defs>
</svg>
