<svg width="32" height="33" viewBox="0 0 32 33" fill="none" xmlns="http://www.w3.org/2000/svg">
<rect x="0.556389" y="0.5" width="30.2586" height="31.6921" rx="14.5" stroke="#F2F2F7"/>
<g clip-path="url(#clip0_26_5161)">
<path d="M15.6857 1.36218V4.08652M15.6857 28.6056V31.3299M5.55269 5.74837L7.40215 7.68265M23.9692 25.0095L25.8187 26.9437M1.35883 16.3461H3.96371M27.4076 16.3461H30.0125M5.55269 26.9437L7.40215 25.0095M23.9692 7.68265L25.8187 5.74837M22.1979 16.3461C22.1979 20.1076 19.2823 23.1569 15.6857 23.1569C12.0891 23.1569 9.17347 20.1076 9.17347 16.3461C9.17347 12.5845 12.0891 9.53521 15.6857 9.53521C19.2823 9.53521 22.1979 12.5845 22.1979 16.3461Z" stroke="#B3B3B3" stroke-width="2" stroke-linecap="round" stroke-linejoin="round"/>
</g>
<defs>
<clipPath id="clip0_26_5161">
<rect width="31.2586" height="32.6921" fill="white" transform="translate(0.0563889)"/>
</clipPath>
</defs>
</svg>
